<svg xmlns="http://www.w3.org/2000/svg" viewBox="0 0 720 520" role="img" aria-labelledby="title desc"><title id="title">About Booqi team illustration</title><desc id="desc">Abstract team collaboration scene around a product roadmap.</desc><defs><linearGradient id="g" x1="0" y1="0" x2="1" y2="1"><stop offset="0%" stop-color="#0a151d"/><stop offset="100%" stop-color="#123041"/></linearGradient></defs><rect width="720" height="520" rx="42" fill="url(#g)"/><rect x="178" y="92" width="364" height="228" rx="34" fill="#102331"/><rect x="214" y="132" width="156" height="14" rx="7" fill="#1f4450"/><rect x="214" y="164" width="208" height="14" rx="7" fill="#1f4450"/><rect x="214" y="212" width="102" height="82" rx="22" fill="#173948"/><rect x="336" y="212" width="170" height="82" rx="22" fill="#173948"/><circle cx="194" cy="388" r="54" fill="#5cf0ca" fill-opacity=".18"/><circle cx="194" cy="372" r="30" fill="#5cf0ca"/><rect x="160" y="404" width="68" height="42" rx="21" fill="#5cf0ca"/><circle cx="360" cy="398" r="54" fill="#f6cc7c" fill-opacity=".18"/><circle cx="360" cy="382" r="30" fill="#f6cc7c"/><rect x="326" y="414" width="68" height="42" rx="21" fill="#f6cc7c"/><circle cx="526" cy="388" r="54" fill="#7eb4ff" fill-opacity=".18"/><circle cx="526" cy="372" r="30" fill="#7eb4ff"/><rect x="492" y="404" width="68" height="42" rx="21" fill="#7eb4ff"/></svg>