<svg xmlns="http://www.w3.org/2000/svg" viewBox="0 0 720 520" role="img" aria-labelledby="title desc"><title id="title">Contact Booqi illustration</title><desc id="desc">Support illustration with map pin, message cards, and ticket details.</desc><defs><linearGradient id="g" x1="0" y1="0" x2="1" y2="1"><stop offset="0%" stop-color="#0a151d"/><stop offset="100%" stop-color="#123041"/></linearGradient></defs><rect width="720" height="520" rx="42" fill="url(#g)"/><rect x="116" y="116" width="220" height="196" rx="32" fill="#102331"/><rect x="386" y="96" width="220" height="122" rx="28" fill="#173948"/><rect x="386" y="250" width="168" height="118" rx="28" fill="#102331"/><path d="M226 148c34 0 62 28 62 62 0 44-62 104-62 104s-62-60-62-104c0-34 28-62 62-62z" fill="#5cf0ca" fill-opacity=".9"/><circle cx="226" cy="210" r="26" fill="#0d1b25"/><rect x="420" y="128" width="112" height="12" rx="6" fill="#a7bcc6"/><rect x="420" y="156" width="146" height="12" rx="6" fill="#a7bcc6"/><rect x="420" y="186" width="88" height="12" rx="6" fill="#a7bcc6"/><rect x="418" y="282" width="90" height="12" rx="6" fill="#5cf0ca"/><rect x="418" y="310" width="112" height="12" rx="6" fill="#2a505d"/><rect x="418" y="338" width="76" height="12" rx="6" fill="#2a505d"/></svg>