<svg xmlns="http://www.w3.org/2000/svg" viewBox="0 0 760 560" role="img" aria-labelledby="title desc"><title id="title">Industry overview collage</title><desc id="desc">Four-quadrant illustration for theme parks, zoos, museums, and swimming pools.</desc><rect width="760" height="560" rx="42" fill="#091018"/><g transform="translate(36 36)"><rect width="320" height="220" rx="30" fill="#e6b782"/><path d="M42 180c34-34 64-20 98-58 33 57 86 17 122-36 27 48 30 46 58 94v34H42z" fill="#60391a" fill-opacity=".42"/></g><g transform="translate(404 36)"><rect width="320" height="220" rx="30" fill="#98bf74"/><path d="M48 182c40-62 142-68 194-10 24 26 32 58 32 58H48z" fill="#295032" fill-opacity=".36"/></g><g transform="translate(36 304)"><rect width="320" height="220" rx="30" fill="#c8aa8e"/><path d="M88 182h144" stroke="#5a4535" stroke-width="14" stroke-linecap="round"/><path d="M106 86h108" stroke="#5a4535" stroke-width="20" stroke-linecap="round"/><path d="M120 86v96M156 86v96M192 86v96" stroke="#5a4535" stroke-width="16" stroke-linecap="round"/></g><g transform="translate(404 304)"><rect width="320" height="220" rx="30" fill="#7bc1d6"/><path d="M48 102h224M48 136h224M48 170h224" stroke="#ffffff" stroke-opacity=".62" stroke-width="12" stroke-linecap="round"/><path d="M238 54v84m28-84v84" stroke="#eefcff" stroke-width="12" stroke-linecap="round"/></g></svg>