<svg xmlns="http://www.w3.org/2000/svg" viewBox="0 0 720 520" role="img" aria-labelledby="title desc"><title id="title">Zoo illustration</title><desc id="desc">Zoo card illustration with leaf canopy and animal silhouette.</desc><defs><linearGradient id="g" x1="0" y1="0" x2="1" y2="1"><stop offset="0%" stop-color="#e7f6db"/><stop offset="100%" stop-color="#94bb73"/></linearGradient></defs><rect width="720" height="520" rx="42" fill="url(#g)"/><circle cx="274" cy="112" r="58" fill="#fff" fill-opacity=".22"/><path d="M108 286c40-62 142-68 194-10 24 26 32 58 32 58H108z" fill="#295032" fill-opacity=".36"/><path d="M178 212c14-34 68-34 80 0 16 2 28 18 28 36 0 24-18 42-42 42h-44c-24 0-42-18-42-42 0-18 8-30 20-36z" fill="#1f3c24" fill-opacity=".72"/><circle cx="206" cy="236" r="6" fill="#e7f6db"/><circle cx="250" cy="236" r="6" fill="#e7f6db"/></svg>