<svg xmlns="http://www.w3.org/2000/svg" width="960" height="600" viewBox="0 0 960 600" fill="none"><rect width="960" height="600" rx="32" fill="#E9F8F4"/><rect y="430" width="960" height="170" fill="#C9ECE3"/><path d="M74 430H300L196 152L74 430Z" fill="#28CBAE"/><path d="M212 430H452L334 116L212 430Z" fill="#0A6C63"/><path d="M620 430V218L784 144V430" fill="#163745"/><path d="M660 430V262L746 224V430" fill="#28CBAE"/><path d="M440 430C492 358 552 322 620 322C692 322 758 360 820 430" stroke="#0B6C65" stroke-width="16" stroke-linecap="round"/><circle cx="586" cy="286" r="22" fill="#28CBAE"/><circle cx="172" cy="480" r="28" fill="#163745"/><circle cx="290" cy="480" r="28" fill="#163745"/><rect x="164" y="450" width="134" height="20" rx="10" fill="#163745"/></svg>