<svg xmlns="http://www.w3.org/2000/svg" width="960" height="600" viewBox="0 0 960 600" fill="none"><rect width="960" height="600" rx="32" fill="#E9F6FB"/><rect x="86" y="166" width="788" height="298" rx="34" fill="#BDE7F7" stroke="#7BC8E5" stroke-width="8"/><path d="M148 254C184 234 220 234 256 254C292 274 328 274 364 254C400 234 436 234 472 254C508 274 544 274 580 254C616 234 652 234 688 254C724 274 760 274 796 254" stroke="#2AA8D9" stroke-width="18" stroke-linecap="round"/><path d="M148 330C184 310 220 310 256 330C292 350 328 350 364 330C400 310 436 310 472 330C508 350 544 350 580 330C616 310 652 310 688 330C724 350 760 350 796 330" stroke="#2AA8D9" stroke-width="18" stroke-linecap="round"/><path d="M148 406C184 386 220 386 256 406C292 426 328 426 364 406C400 386 436 386 472 406C508 426 544 426 580 406C616 386 652 386 688 406C724 426 760 426 796 406" stroke="#2AA8D9" stroke-width="18" stroke-linecap="round"/><rect x="704" y="116" width="88" height="50" rx="18" fill="#163745"/><rect x="724" y="72" width="14" height="44" rx="7" fill="#163745"/><rect x="758" y="40" width="14" height="76" rx="7" fill="#163745"/><path d="M188 142H282" stroke="#28CBAE" stroke-width="14" stroke-linecap="round"/><path d="M188 120H334" stroke="#163745" stroke-width="14" stroke-linecap="round"/></svg>