<svg xmlns="http://www.w3.org/2000/svg" width="1600" height="840" viewBox="0 0 1600 840" fill="none">
  <defs>
    <linearGradient id="bg" x1="800" y1="0" x2="800" y2="840" gradientUnits="userSpaceOnUse">
      <stop stop-color="#182333"/>
      <stop offset="1" stop-color="#0C111B"/>
    </linearGradient>
    <linearGradient id="accent" x1="1010" y1="176" x2="1010" y2="596" gradientUnits="userSpaceOnUse">
      <stop stop-color="#2BE0C0"/>
      <stop offset="1" stop-color="#0B6C65"/>
    </linearGradient>
    <linearGradient id="panel" x1="742" y1="128" x2="742" y2="712" gradientUnits="userSpaceOnUse">
      <stop stop-color="#F7FAFC"/>
      <stop offset="1" stop-color="#E8EEF3"/>
    </linearGradient>
    <filter id="shadow" x="80" y="80" width="1440" height="680" filterUnits="userSpaceOnUse" color-interpolation-filters="sRGB">
      <feDropShadow dx="0" dy="32" stdDeviation="36" flood-color="#020611" flood-opacity="0.36"/>
    </filter>
  </defs>
  <rect width="1600" height="840" rx="48" fill="url(#bg)"/>
  <g filter="url(#shadow)">
    <rect x="126" y="110" width="1348" height="620" rx="34" fill="#131B26" stroke="#FFFFFF" stroke-opacity="0.14"/>
    <rect x="156" y="144" width="1288" height="548" rx="26" fill="url(#panel)"/>
  </g>
  <rect x="156" y="144" width="1288" height="92" rx="26" fill="#F2F6F9"/>
  <rect x="196" y="180" width="226" height="24" rx="12" fill="#CBD8E2"/>
  <rect x="1170" y="172" width="190" height="40" rx="20" fill="#061613"/>
  <rect x="1186" y="185" width="54" height="14" rx="7" fill="#28CBAE"/>
  <rect x="1252" y="185" width="60" height="14" rx="7" fill="#A6B9C8"/>
  <rect x="224" y="276" width="306" height="260" rx="24" fill="#F6FAFD" stroke="#D7E0E8"/>
  <rect x="562" y="276" width="576" height="260" rx="24" fill="#FFFFFF" stroke="#D7E0E8"/>
  <rect x="1170" y="276" width="190" height="260" rx="24" fill="#F6FAFD" stroke="#D7E0E8"/>
  <rect x="224" y="566" width="658" height="86" rx="22" fill="#FFFFFF" stroke="#D7E0E8"/>
  <rect x="914" y="566" width="446" height="86" rx="22" fill="#FFFFFF" stroke="#D7E0E8"/>
  <rect x="260" y="318" width="120" height="18" rx="9" fill="#C3D1DB"/>
  <rect x="260" y="358" width="180" height="18" rx="9" fill="#081D19"/>
  <rect x="260" y="394" width="120" height="18" rx="9" fill="#D4E0E8"/>
  <path d="M260 484C302 448 340 430 372 430C404 430 430 440 462 474L494 506" stroke="#28CBAE" stroke-width="18" stroke-linecap="round" stroke-linejoin="round"/>
  <path d="M602 476C644 424 686 396 730 396C778 396 822 430 860 466C900 506 940 532 980 532C1018 532 1056 512 1098 468" stroke="url(#accent)" stroke-width="22" stroke-linecap="round" stroke-linejoin="round"/>
  <circle cx="792" cy="420" r="20" fill="#061613"/>
  <circle cx="792" cy="420" r="10" fill="#28CBAE"/>
  <rect x="602" y="320" width="168" height="18" rx="9" fill="#D1DCE5"/>
  <rect x="1182" y="320" width="96" height="16" rx="8" fill="#C5D3DE"/>
  <rect x="1182" y="354" width="116" height="18" rx="9" fill="#091915"/>
  <rect x="1182" y="392" width="82" height="14" rx="7" fill="#C5D3DE"/>
  <rect x="1182" y="442" width="126" height="18" rx="9" fill="#D8E3EA"/>
  <rect x="1182" y="474" width="94" height="18" rx="9" fill="#D8E3EA"/>
  <rect x="952" y="596" width="120" height="26" rx="13" fill="#061613"/>
  <rect x="1094" y="600" width="150" height="18" rx="9" fill="#D1DCE5"/>
  <rect x="248" y="596" width="164" height="24" rx="12" fill="#061613"/>
  <rect x="430" y="600" width="136" height="16" rx="8" fill="#D1DCE5"/>
  <rect x="584" y="600" width="138" height="16" rx="8" fill="#D1DCE5"/>
  <circle cx="1312" cy="620" r="90" fill="#EAF7F5"/>
  <path d="M1274 646L1308 584L1342 646" stroke="#0C6B64" stroke-width="16" stroke-linecap="round" stroke-linejoin="round"/>
  <circle cx="1310" cy="578" r="18" fill="#28CBAE"/>
</svg>