<svg xmlns="http://www.w3.org/2000/svg" width="960" height="600" viewBox="0 0 960 600" fill="none"><rect width="960" height="600" rx="32" fill="#EDF8E9"/><rect y="410" width="960" height="190" fill="#D5EBC9"/><rect x="118" y="164" width="262" height="248" rx="28" fill="#163745"/><rect x="148" y="198" width="202" height="180" rx="20" fill="#F5FAF2"/><path d="M560 420C560 336 622 268 706 268C790 268 852 336 852 420" stroke="#28CBAE" stroke-width="28" stroke-linecap="round"/><circle cx="706" cy="244" r="46" fill="#0A6C63"/><circle cx="686" cy="228" r="8" fill="#F5FAF2"/><circle cx="726" cy="228" r="8" fill="#F5FAF2"/><path d="M686 260C698 270 714 270 726 260" stroke="#F5FAF2" stroke-width="8" stroke-linecap="round"/><path d="M214 286H286M214 326H286" stroke="#28CBAE" stroke-width="18" stroke-linecap="round"/><path d="M456 446L522 336L594 446" stroke="#7ABF95" stroke-width="18" stroke-linecap="round" stroke-linejoin="round"/></svg>