<svg xmlns="http://www.w3.org/2000/svg" viewBox="0 0 720 560" role="img" aria-labelledby="title desc">
<title id="title">Platform feature overview</title><desc id="desc">Light product illustration showing dashboard modules, integrations, and pricing cards.</desc>
<defs><linearGradient id="bg" x1="0" y1="0" x2="1" y2="1"><stop offset="0%" stop-color="#f4fffb"/><stop offset="100%" stop-color="#d9f3eb"/></linearGradient><linearGradient id="card" x1="0" y1="0" x2="1" y2="1"><stop offset="0%" stop-color="#08121b"/><stop offset="100%" stop-color="#102634"/></linearGradient></defs>
<rect width="720" height="560" rx="40" fill="url(#bg)"/>
<circle cx="610" cy="96" r="78" fill="#5cf0ca" fill-opacity=".18"/>
<rect x="90" y="88" width="500" height="300" rx="34" fill="url(#card)"/>
<rect x="126" y="126" width="112" height="12" rx="6" fill="#16303b"/><rect x="126" y="154" width="180" height="12" rx="6" fill="#16303b"/>
<rect x="126" y="204" width="160" height="126" rx="24" fill="#0d202b" stroke="#17313c"/>
<rect x="310" y="204" width="240" height="126" rx="24" fill="#0d202b" stroke="#17313c"/>
<rect x="332" y="226" width="74" height="74" rx="20" fill="#113441"/>
<circle cx="369" cy="263" r="24" fill="none" stroke="#5cf0ca" stroke-width="10"/>
<rect x="426" y="234" width="94" height="12" rx="6" fill="#214551"/><rect x="426" y="262" width="72" height="12" rx="6" fill="#214551"/>
<rect x="44" y="346" width="210" height="122" rx="28" fill="#fff" stroke="#d5e7df"/>
<text x="74" y="384" fill="#0d1821" font-size="22" font-family="Inter, Arial, sans-serif" font-weight="700">Online + onsite sales</text>
<text x="74" y="416" fill="#50646c" font-size="16" font-family="Inter, Arial, sans-serif">Tickets, passes, hardware, and integrations.</text>
<rect x="420" y="392" width="236" height="108" rx="28" fill="#0d1821"/>
<text x="452" y="432" fill="#5cf0ca" font-size="22" font-family="Inter, Arial, sans-serif" font-weight="700">Dynamic pricing</text>
<text x="452" y="464" fill="#b7c6cc" font-size="16" font-family="Inter, Arial, sans-serif">React to demand with flexible offers and timeslots.</text>
</svg>