<svg xmlns="http://www.w3.org/2000/svg" viewBox="0 0 460 320" role="img" aria-labelledby="title desc"><title id="title">Cloud infrastructure illustration</title><desc id="desc">Servers and a cloud syncing securely.</desc><rect width="460" height="320" rx="34" fill="#0a141d"/><rect x="94" y="120" width="116" height="112" rx="22" fill="#102231"/><rect x="126" y="150" width="52" height="10" rx="5" fill="#5cf0ca"/><rect x="126" y="176" width="52" height="10" rx="5" fill="#244350"/><rect x="250" y="136" width="124" height="82" rx="28" fill="#123041"/><path d="M282 176c0-21 17-38 38-38 13 0 23 5 31 14 5-4 12-6 19-6 19 0 34 15 34 34 0 18-14 32-32 32h-86c-20 0-36-16-36-36z" fill="#5cf0ca" fill-opacity=".24" stroke="#5cf0ca" stroke-width="8"/></svg>